<svg xmlns="http://www.w3.org/2000/svg">
  <symbol id="user" viewBox="0 0 24 24">
    <path d="M7.38999 17.0391C6.00145 16.0599 4.96074 14.664 4.41862 13.0537C3.87651 11.4435 3.86115 9.7024 4.37479 8.08282C4.88842 6.46324 5.90435 5.04925 7.27541 4.04571C8.64646 3.04218 10.3014 2.50122 12.0005 2.50122C13.6996 2.50122 15.3545 3.04218 16.7256 4.04571C18.0966 5.04925 19.1126 6.46324 19.6262 8.08282C20.1398 9.7024 20.1245 11.4435 19.5824 13.0537C19.0402 14.664 17.9995 16.0599 16.611 17.0391L18.694 21.7991C18.7274 21.8752 18.7413 21.9586 18.7344 22.0415C18.7275 22.1244 18.7001 22.2043 18.6545 22.274C18.6089 22.3436 18.5467 22.4007 18.4734 22.4402C18.4001 22.4797 18.3182 22.5003 18.235 22.5001H5.76499C5.6819 22.5002 5.6001 22.4796 5.52697 22.4402C5.45383 22.4007 5.39168 22.3437 5.34612 22.2742C5.30056 22.2047 5.27303 22.125 5.26603 22.0422C5.25902 21.9594 5.27275 21.8762 5.30599 21.8001L7.38999 17.0391ZM14.125 16.3461L15.457 15.4051C16.4987 14.6709 17.2796 13.624 17.6865 12.4163C18.0934 11.2085 18.1051 9.90259 17.72 8.68771C17.3349 7.47283 16.573 6.41214 15.5446 5.65933C14.5163 4.90652 13.2749 4.50071 12.0005 4.50071C10.726 4.50071 9.48469 4.90652 8.45634 5.65933C7.42799 6.41214 6.66605 7.47283 6.28096 8.68771C5.89586 9.90259 5.90761 11.2085 6.31449 12.4163C6.72138 13.624 7.50226 14.6709 8.54399 15.4051L9.87499 16.3461L8.05799 20.5001H15.942L14.125 16.3461ZM8.11899 11.4701L10.059 10.9851C10.1666 11.4184 10.4162 11.8033 10.768 12.0784C11.1198 12.3534 11.5535 12.5029 12 12.5029C12.4465 12.5029 12.8802 12.3534 13.232 12.0784C13.5837 11.8033 13.8333 11.4184 13.941 10.9851L15.881 11.4701C15.6634 12.3345 15.1635 13.1017 14.4604 13.6497C13.7574 14.1978 12.8914 14.4954 12 14.4954C11.1085 14.4954 10.2426 14.1978 9.53956 13.6497C8.83649 13.1017 8.33654 12.3345 8.11899 11.4701Z"/>
  </symbol>

  <symbol id="more-vertical" viewBox="0 0 24 24">
    <path d="M12 3.5C10.9 3.5 10 4.4 10 5.5C10 6.6 10.9 7.5 12 7.5C13.1 7.5 14 6.6 14 5.5C14 4.4 13.1 3.5 12 3.5ZM12 17.5C10.9 17.5 10 18.4 10 19.5C10 20.6 10.9 21.5 12 21.5C13.1 21.5 14 20.6 14 19.5C14 18.4 13.1 17.5 12 17.5ZM12 10.5C10.9 10.5 10 11.4 10 12.5C10 13.6 10.9 14.5 12 14.5C13.1 14.5 14 13.6 14 12.5C14 11.4 13.1 10.5 12 10.5Z" />
  </symbol>

  <symbol id="instagram" viewBox="0 0 24 24">
    <path d="M12.001 9C11.2054 9 10.4423 9.31607 9.87968 9.87868C9.31707 10.4413 9.001 11.2044 9.001 12C9.001 12.7956 9.31707 13.5587 9.87968 14.1213C10.4423 14.6839 11.2054 15 12.001 15C12.7966 15 13.5597 14.6839 14.1223 14.1213C14.6849 13.5587 15.001 12.7956 15.001 12C15.001 11.2044 14.6849 10.4413 14.1223 9.87868C13.5597 9.31607 12.7966 9 12.001 9ZM12.001 7C13.3271 7 14.5989 7.52678 15.5365 8.46447C16.4742 9.40215 17.001 10.6739 17.001 12C17.001 13.3261 16.4742 14.5979 15.5365 15.5355C14.5989 16.4732 13.3271 17 12.001 17C10.6749 17 9.40315 16.4732 8.46547 15.5355C7.52778 14.5979 7.001 13.3261 7.001 12C7.001 10.6739 7.52778 9.40215 8.46547 8.46447C9.40315 7.52678 10.6749 7 12.001 7ZM18.501 6.75C18.501 7.08152 18.3693 7.39946 18.1349 7.63388C17.9005 7.8683 17.5825 8 17.251 8C16.9195 8 16.6015 7.8683 16.3671 7.63388C16.1327 7.39946 16.001 7.08152 16.001 6.75C16.001 6.41848 16.1327 6.10054 16.3671 5.86612C16.6015 5.6317 16.9195 5.5 17.251 5.5C17.5825 5.5 17.9005 5.6317 18.1349 5.86612C18.3693 6.10054 18.501 6.41848 18.501 6.75ZM12.001 4C9.527 4 9.123 4.007 7.972 4.058C7.188 4.095 6.662 4.2 6.174 4.39C5.76583 4.54037 5.39672 4.78063 5.094 5.093C4.78127 5.39562 4.54066 5.76474 4.39 6.173C4.2 6.663 4.095 7.188 4.059 7.971C4.007 9.075 4 9.461 4 12C4 14.475 4.007 14.878 4.058 16.029C4.095 16.812 4.2 17.339 4.389 17.826C4.559 18.261 4.759 18.574 5.091 18.906C5.428 19.242 5.741 19.443 6.171 19.609C6.665 19.8 7.191 19.906 7.971 19.942C9.075 19.994 9.461 20 12 20C14.475 20 14.878 19.993 16.029 19.942C16.811 19.905 17.337 19.8 17.826 19.611C18.2342 19.4606 18.6033 19.2204 18.906 18.908C19.243 18.572 19.444 18.259 19.61 17.828C19.8 17.336 19.906 16.81 19.942 16.028C19.994 14.925 20 14.538 20 12C20 9.526 19.993 9.122 19.942 7.971C19.905 7.189 19.799 6.661 19.61 6.173C19.4596 5.76483 19.2194 5.39572 18.907 5.093C18.6044 4.78027 18.2353 4.53966 17.827 4.389C17.337 4.199 16.811 4.094 16.029 4.058C14.926 4.006 14.54 4 12 4M12 2C14.717 2 15.056 2.01 16.123 2.06C17.187 2.11 17.913 2.277 18.55 2.525C19.21 2.779 19.766 3.123 20.322 3.678C20.8307 4.17773 21.2242 4.78247 21.475 5.45C21.722 6.087 21.89 6.813 21.94 7.878C21.987 8.944 22 9.283 22 12C22 14.717 21.99 15.056 21.94 16.122C21.89 17.188 21.722 17.912 21.475 18.55C21.2242 19.2175 20.8307 19.8223 20.322 20.322C19.8223 20.8307 19.2175 21.2242 18.55 21.475C17.913 21.722 17.187 21.89 16.123 21.94C15.056 21.987 14.717 22 12 22C9.283 22 8.944 21.99 7.877 21.94C6.813 21.89 6.088 21.722 5.45 21.475C4.78247 21.2242 4.17773 20.8307 3.678 20.322C3.16931 19.8223 2.77582 19.2175 2.525 18.55C2.277 17.913 2.11 17.187 2.06 16.122C2.012 15.056 2 14.717 2 12C2 9.283 2.01 8.944 2.06 7.878C2.11 6.812 2.277 6.088 2.525 5.45C2.77582 4.78247 3.16931 4.17773 3.678 3.678C4.17773 3.16931 4.78247 2.77582 5.45 2.525C6.087 2.277 6.812 2.11 7.877 2.06C8.945 2.013 9.284 2 12.001 2" />
  </symbol>

  <symbol id="xsocial" viewBox="0 0 24 24">
    <path d="M10.488 14.651L15.25 21H22.25L14.392 10.522L20.93 3H18.28L13.163 8.886L8.75 3H1.75L9.26 13.015L2.32 21H4.97L10.488 14.651ZM16.25 19L5.75 5H7.75L18.25 19H16.25Z" />
  </symbol>

  <symbol id="facebook" viewBox="0 0 24 24">
    <path d="M12.001 2C6.47798 2 2.00098 6.477 2.00098 12C2.00098 16.991 5.65798 21.128 10.439 21.878V14.891H7.89898V12H10.439V9.797C10.439 7.291 11.931 5.907 14.216 5.907C15.31 5.907 16.454 6.102 16.454 6.102V8.562H15.194C13.951 8.562 13.564 9.333 13.564 10.124V12H16.337L15.894 14.89H13.564V21.878C18.344 21.129 22 16.992 22 12C22 6.477 17.524 2 12.001 2Z" />
  </symbol>
</svg>