<svg xmlns="http://www.w3.org/2000/svg">
  <symbol id="logo-imagotype" viewBox="0 0 314 55" >
    <path d="M37.0595 26.8265C37.0595 31.8049 29.3833 33.5871 28.0483 35.5187C23.7095 31.0117 18.3695 31.8049 18.3695 26.8265C18.3695 21.8481 22.5534 17.8124 27.7145 17.8124C32.8756 17.8124 37.0595 21.8481 37.0595 26.8265Z" fill="#EFC26A"/>
    <path d="M28.2295 5.00288C35.0852 5.10837 39.6973 7.96924 42.6191 11.5634C45.4956 15.1019 46.6912 19.2906 46.916 22.123L46.9209 22.2412V37.2431C46.9208 38.0714 46.2492 38.7431 45.4209 38.7431C40.9492 38.7431 37.285 40.6191 34.4971 42.9951C31.6927 45.385 29.8547 48.2169 29.0791 49.916C28.842 50.4353 28.3304 50.7746 27.7598 50.7919C27.1892 50.8092 26.6587 50.501 26.3906 49.997C21.8881 41.5324 14.2437 38.8405 10.8477 38.7441L10.5322 38.7421C10.1291 38.7508 9.73944 38.5973 9.45117 38.3154C9.16285 38.0333 9.00007 37.6465 9 37.2431V22.2412L9.00879 22.081L9.0791 21.5214C9.49275 18.6457 10.8291 14.676 13.623 11.3378C16.6502 7.72107 21.354 4.8971 28.2295 5.00288ZM28.1836 8.00288C22.2712 7.91192 18.4085 10.2928 15.9229 13.2626C13.4142 16.26 12.2752 19.9077 12 22.333V35.83C16.2442 36.3499 22.9929 39.2527 27.6709 46.2939C28.8065 44.5322 30.442 42.5099 32.5518 40.7119C35.4259 38.2625 39.2444 36.1757 43.9209 35.8017V22.3105C43.7254 19.9776 42.705 16.4245 40.291 13.455C37.9051 10.5203 34.1152 8.09422 28.1836 8.00288Z" fill="#222222"/>
    <path d="M10.7842 20.2771C13.2433 20.7517 17.0543 21.8901 20.6074 23.7898C24.1218 25.6688 27.6437 28.4324 29.1152 32.281L29.1582 32.4109C29.1952 32.5426 29.2148 32.6789 29.2148 32.8162V49.0466H26.2148V33.1062C25.0676 30.3775 22.3835 28.1409 19.1934 26.4353C15.9468 24.6995 12.4292 23.6496 10.2158 23.2224L10.7842 20.2771Z" fill="#222222"/>
    <path d="M45.1416 20.2761C42.6181 20.7539 38.7045 21.9005 35.0557 23.8142C31.4488 25.706 27.8305 28.4893 26.3174 32.3708L26.2725 32.5037C26.2342 32.6375 26.2149 32.7761 26.2148 32.9158V49.2927H29.2148V33.2097C30.3963 30.4562 33.1607 28.1958 36.4482 26.4714C39.7932 24.7171 43.4178 23.6555 45.7002 23.2234L45.1416 20.2761Z" fill="#222222"/>
    <path d="M86.8664 23.0855C86.8664 21.6977 86.3575 20.5488 85.3397 19.639C84.3219 18.7137 82.9649 18.2511 81.2686 18.2511C79.8344 18.2511 78.6085 18.6289 77.5907 19.3845C76.5729 20.1247 75.8018 21.1965 75.2775 22.5998C74.7532 24.0031 74.4911 25.6994 74.4911 27.6887C74.4911 29.6626 74.7609 31.3126 75.3007 32.6388C75.8404 33.9496 76.6191 34.9443 77.6369 35.6228C78.6701 36.2859 79.9192 36.6175 81.3842 36.6175C82.6488 36.6175 83.8285 36.4093 84.9233 35.9929C86.0337 35.5765 87.1054 34.8903 88.1386 33.9342L88.3237 34.952C87.2751 35.8464 86.3498 36.5866 85.5479 37.1726C84.746 37.7586 84.0135 38.2212 83.3504 38.5605C82.6873 38.8843 82.055 39.1157 81.4536 39.2544C80.8676 39.3932 80.2739 39.4626 79.6725 39.4626C77.6986 39.4626 76.0023 39.0308 74.5836 38.1673C73.1803 37.3037 72.1008 36.1009 71.3452 34.5588C70.605 33.0167 70.2349 31.2278 70.2349 29.1923C70.2349 27.2338 70.5356 25.4912 71.137 23.9645C71.7384 22.4224 72.5711 21.1194 73.6352 20.0553C74.7147 18.9758 75.9638 18.1585 77.3825 17.6034C78.8166 17.0328 80.3664 16.7475 82.0319 16.7475C82.8646 16.7475 83.6897 16.8169 84.507 16.9557C85.3243 17.0791 86.1416 17.2718 86.9589 17.534C87.7917 17.7961 88.609 18.1431 89.4109 18.5749L86.8664 19.5464V9.34544C86.6813 9.19123 86.4038 9.01389 86.0337 8.81342C85.6636 8.61295 85.2549 8.41247 84.8077 8.212C84.3605 7.99611 83.9133 7.78793 83.4661 7.58745V7.17109L90.7294 5.38996H90.9607L90.7062 9.04474V36.2242C90.845 36.3322 91.0455 36.4555 91.3076 36.5943C91.5852 36.7331 91.8859 36.8719 92.2098 37.0107C92.5336 37.1495 92.8497 37.2806 93.1582 37.4039C93.482 37.5273 93.7673 37.6198 94.014 37.6815V38.2829L87.3059 39.4858H87.0052L86.8664 36.1317V23.0855ZM106.549 16.7475C108.107 16.7475 109.456 17.0868 110.597 17.7653C111.754 18.4284 112.671 19.4076 113.35 20.703C114.044 21.9829 114.468 23.5559 114.622 25.4218H99.841L99.8641 23.9877L112.216 23.7101L110.528 24.6585C110.389 23.2706 110.134 22.0986 109.764 21.1425C109.41 20.171 108.924 19.4385 108.307 18.945C107.706 18.4515 106.942 18.2048 106.017 18.2048C104.845 18.2048 103.827 18.5364 102.964 19.1995C102.116 19.8626 101.452 20.8264 100.974 22.0909C100.512 23.3554 100.28 24.8975 100.28 26.7172C100.28 28.8761 100.612 30.6804 101.275 32.13C101.954 33.5641 102.917 34.6359 104.167 35.3452C105.416 36.0546 106.904 36.4093 108.631 36.4093C109.34 36.4093 110.042 36.3167 110.736 36.1317C111.445 35.9312 112.116 35.6382 112.748 35.2527C113.396 34.8518 113.974 34.366 114.483 33.7954L114.946 34.2349C114.082 35.484 113.203 36.4941 112.309 37.2651C111.43 38.0362 110.497 38.5991 109.51 38.9537C108.538 39.293 107.482 39.4626 106.341 39.4626C104.444 39.4626 102.74 39.0231 101.229 38.1441C99.7176 37.2497 98.5225 35.9852 97.6435 34.3506C96.7799 32.7005 96.3481 30.7344 96.3481 28.452C96.3481 26.3239 96.7491 24.3732 97.551 22.5998C98.3683 20.8264 99.5403 19.4076 101.067 18.3436C102.594 17.2795 104.421 16.7475 106.549 16.7475ZM125.926 16.7475C126.898 16.7475 127.769 16.8478 128.54 17.0482C129.326 17.2487 130.167 17.5725 131.061 18.0197L131.616 23.9414H130.761L128.124 17.9504L129.812 19.9628C129.103 19.2843 128.44 18.7985 127.823 18.5055C127.206 18.1971 126.489 18.0429 125.672 18.0429C124.423 18.0429 123.443 18.3282 122.734 18.8987C122.025 19.4693 121.67 20.2789 121.67 21.3275C121.67 22.0061 121.832 22.6075 122.156 23.1318C122.479 23.6407 123.004 24.1187 123.729 24.566C124.469 24.9977 125.448 25.4681 126.666 25.977C127.576 26.3317 128.37 26.7326 129.049 27.1798C129.743 27.627 130.313 28.1205 130.761 28.6602C131.223 29.1845 131.57 29.786 131.801 30.4645C132.048 31.143 132.172 31.9063 132.172 32.7545C132.172 34.127 131.809 35.3144 131.084 36.3167C130.36 37.3191 129.396 38.0979 128.193 38.653C126.99 39.1928 125.641 39.4626 124.145 39.4626C123.112 39.4626 122.179 39.3701 121.346 39.1851C120.529 39 119.727 38.7147 118.94 38.3292L117.761 31.8755H118.709L122.179 38.5374L120.236 37.057C120.729 37.3345 121.184 37.5581 121.6 37.7278C122.017 37.8974 122.425 38.0208 122.826 38.0979C123.227 38.1596 123.628 38.1904 124.029 38.1904C125.417 38.1904 126.589 37.8511 127.545 37.1726C128.501 36.4941 128.979 35.4763 128.979 34.1193C128.979 33.5024 128.856 32.9627 128.609 32.5001C128.378 32.0374 128.023 31.6133 127.545 31.2278C127.083 30.8423 126.52 30.4799 125.857 30.1406C125.194 29.8014 124.438 29.4544 123.59 29.0997C122.449 28.6217 121.508 28.0897 120.768 27.5037C120.028 26.9022 119.48 26.2083 119.125 25.4218C118.771 24.6354 118.593 23.7178 118.593 22.6692C118.593 21.4047 118.925 20.3329 119.588 19.4539C120.251 18.5749 121.138 17.9041 122.248 17.4415C123.358 16.9788 124.584 16.7475 125.926 16.7475ZM141.456 32.7314C141.318 33.2711 141.217 33.7337 141.156 34.1193C141.109 34.4894 141.086 34.8209 141.086 35.1139C141.086 35.9929 141.302 36.7485 141.734 37.3808C142.181 37.9976 142.898 38.3061 143.885 38.3061C144.687 38.3061 145.52 38.0053 146.383 37.4039C147.262 36.8025 148.11 35.9852 148.928 34.952C149.761 33.9188 150.508 32.7468 151.172 31.436C151.835 30.1098 152.359 28.7219 152.744 27.2723C153.145 25.8073 153.346 24.3501 153.346 22.9005C153.346 21.7439 153.138 20.9035 152.721 20.3792C152.32 19.8394 151.711 19.5696 150.894 19.5696C150.215 19.5696 149.529 19.7623 148.835 20.1478C148.141 20.5179 147.463 21.0268 146.8 21.6745C146.152 22.3068 145.543 23.0316 144.972 23.8489C144.417 24.6662 143.931 25.5143 143.515 26.3933C143.099 27.2569 142.775 28.1051 142.543 28.9378L141.456 32.7314ZM138.565 36.7331L140.277 37.1032L137.038 48.3682L140.901 49.2704L140.67 50.0106H129.983L130.238 49.2704L133.592 48.3682L141.711 20.3329C141.757 20.1633 141.757 20.0322 141.711 19.9397C141.665 19.8471 141.572 19.8009 141.433 19.8009C141.001 19.8009 140.508 19.9551 139.953 20.2635C139.398 20.5565 138.781 21.0962 138.102 21.8827C137.424 22.6538 136.684 23.7641 135.882 25.2136L135.35 24.9823C136.213 22.8851 137.061 21.2427 137.894 20.0553C138.742 18.8525 139.606 18.0043 140.485 17.5109C141.364 17.002 142.274 16.7475 143.214 16.7475C143.708 16.7475 144.163 16.7938 144.579 16.8863C144.995 16.9634 145.42 17.0791 145.851 17.2333L143.261 26.1389L143.006 25.7919C144.209 23.525 145.366 21.7362 146.476 20.4254C147.586 19.0992 148.642 18.1585 149.645 17.6034C150.663 17.0328 151.619 16.7475 152.513 16.7475C154.102 16.7475 155.274 17.2256 156.029 18.1817C156.8 19.1378 157.186 20.4023 157.186 21.9752C157.186 23.7024 156.931 25.4064 156.422 27.0873C155.913 28.7682 155.212 30.3565 154.317 31.8524C153.438 33.3328 152.428 34.6436 151.287 35.7847C150.146 36.9259 148.928 37.828 147.632 38.4911C146.352 39.1388 145.057 39.4626 143.746 39.4626C142.513 39.4626 141.441 39.2236 140.531 38.7456C139.637 38.2521 138.981 37.5813 138.565 36.7331ZM169.798 37.7509L172.412 29.6086H172.828C171.533 31.5517 170.376 33.1632 169.359 34.4431C168.341 35.7076 167.416 36.7023 166.583 37.4271C165.766 38.1518 165.018 38.6684 164.339 38.9769C163.661 39.2853 163.005 39.4395 162.373 39.4395C161.556 39.4395 160.831 39.2776 160.199 38.9537C159.582 38.6299 159.096 38.1441 158.741 37.4965C158.387 36.8334 158.209 35.9929 158.209 34.9751C158.209 33.5564 158.464 32.0374 158.973 30.4182C159.497 28.7836 160.214 27.1798 161.124 25.6069C162.034 24.0185 163.075 22.5767 164.247 21.2813C165.434 19.9705 166.691 18.9296 168.017 18.1585C169.359 17.3721 170.7 16.9788 172.042 16.9788C172.936 16.9788 173.723 17.187 174.401 17.6034C175.08 18.0197 175.674 18.6443 176.182 19.477L175.627 20.3792C175.365 19.7777 174.995 19.3305 174.517 19.0375C174.054 18.7291 173.491 18.5749 172.828 18.5749C171.78 18.5749 170.739 18.9373 169.706 19.6621C168.672 20.3869 167.685 21.3507 166.745 22.5535C165.82 23.7409 165.002 25.0363 164.293 26.4396C163.584 27.8429 163.021 29.2231 162.604 30.5801C162.188 31.9372 161.98 33.14 161.98 34.1887C161.98 35.0214 162.172 35.6228 162.558 35.9929C162.959 36.3476 163.468 36.5249 164.085 36.5249C164.563 36.5249 165.141 36.3476 165.82 35.9929C166.498 35.6382 167.223 35.1216 167.994 34.4431C168.78 33.7492 169.575 32.8856 170.376 31.8524C171.178 30.8037 171.942 29.5932 172.666 28.2207L175.951 18.4361L177.709 17.2101H179.86L173.268 37.1726L172.828 36.363C173.291 36.471 173.862 36.417 174.54 36.2011C175.219 35.9698 175.974 35.5534 176.807 34.952C177.64 34.3352 178.526 33.5178 179.467 32.5001L179.883 32.9396C178.095 35.3761 176.514 37.0724 175.142 38.0285C173.784 38.9846 172.574 39.4626 171.51 39.4626C170.801 39.4626 170.292 39.3084 169.983 39C169.675 38.6916 169.613 38.2752 169.798 37.7509ZM188.498 20.3329C188.514 20.1941 188.49 20.0707 188.429 19.9628C188.382 19.8548 188.275 19.8009 188.105 19.8009C187.673 19.8009 187.18 19.9551 186.625 20.2635C186.069 20.5565 185.453 21.0962 184.774 21.8827C184.111 22.6538 183.371 23.7641 182.553 25.2136L182.021 24.9823C182.885 22.8851 183.741 21.2427 184.589 20.0553C185.437 18.8525 186.308 18.0043 187.203 17.5109C188.097 17.002 189.022 16.7475 189.979 16.7475C190.318 16.7475 190.634 16.7706 190.927 16.8169C191.22 16.8478 191.505 16.9017 191.783 16.9788C192.076 17.0559 192.361 17.1485 192.639 17.2564L189.77 26.4859H189.655C190.904 23.9877 192.037 22.0292 193.055 20.6105C194.073 19.1917 195.037 18.1971 195.946 17.6265C196.856 17.0405 197.758 16.7475 198.653 16.7475C199.578 16.7475 200.257 16.9711 200.688 17.4183C201.12 17.8655 201.336 18.4361 201.336 19.1301C201.336 19.7315 201.197 20.2635 200.92 20.7261C200.642 21.1733 200.28 21.528 199.833 21.7902C199.385 22.0369 198.9 22.1603 198.375 22.1603C197.99 22.1603 197.704 22.0678 197.519 21.8827C197.334 21.6822 197.203 21.3738 197.126 20.9574C197.08 20.5257 196.987 20.2327 196.849 20.0785C196.725 19.9088 196.548 19.824 196.317 19.824C195.885 19.824 195.399 20.0168 194.859 20.4023C194.335 20.7878 193.78 21.3353 193.194 22.0446C192.623 22.754 192.045 23.6021 191.459 24.5891C190.888 25.5606 190.333 26.6401 189.794 27.8275C189.254 29.0149 188.768 30.2794 188.336 31.6211L185.954 39H182.484L188.498 20.3329ZM211.102 18.0197C210.038 18.0197 209.044 18.4592 208.118 19.3382C207.193 20.2172 206.383 21.3661 205.69 22.7848C205.011 24.1881 204.479 25.7148 204.093 27.3649C203.708 29.0149 203.515 30.6264 203.515 32.1993C203.515 33.8185 203.77 34.9674 204.279 35.6459C204.803 36.3245 205.582 36.6637 206.615 36.6637C207.355 36.6637 208.095 36.4941 208.835 36.1548C209.576 35.8001 210.316 35.2219 211.056 34.42C211.812 33.6181 212.552 32.5309 213.277 31.1584L214.017 31.1816C213.138 33.3097 212.243 34.9751 211.334 36.178C210.439 37.3808 209.506 38.229 208.535 38.7224C207.563 39.2159 206.53 39.4626 205.435 39.4626C203.662 39.4626 202.289 38.9537 201.318 37.936C200.346 36.9182 199.86 35.3992 199.86 33.3791C199.86 31.1584 200.192 29.0535 200.855 27.0642C201.534 25.0594 202.451 23.286 203.608 21.7439C204.78 20.1864 206.121 18.9681 207.633 18.0891C209.144 17.1947 210.74 16.7475 212.421 16.7475C213.886 16.7475 214.958 17.0559 215.636 17.6728C216.33 18.2742 216.677 18.999 216.677 19.8471C216.677 20.4948 216.469 21.0423 216.052 21.4895C215.636 21.9213 215.073 22.1449 214.364 22.1603C213.855 22.1603 213.462 21.9907 213.184 21.6514C212.922 21.2967 212.775 20.7647 212.745 20.0553C212.729 19.346 212.583 18.8294 212.305 18.5055C212.043 18.1817 211.642 18.0197 211.102 18.0197ZM222.277 30.0944L219.362 39H215.939L225.33 9.25292C225.053 9.0216 224.752 8.798 224.428 8.58211C224.104 8.35079 223.757 8.11948 223.387 7.88816C223.017 7.65685 222.609 7.43324 222.161 7.21735L222.254 6.87038L229.563 5.38996H229.864L223.364 26.3933L223.04 26.3702C224.074 24.6893 225.045 23.2475 225.955 22.0446C226.88 20.8264 227.767 19.8317 228.615 19.0607C229.479 18.2896 230.319 17.719 231.136 17.3489C231.969 16.9634 232.802 16.7706 233.635 16.7706C234.976 16.7706 235.909 17.0714 236.433 17.6728C236.973 18.2742 237.243 19.0221 237.243 19.9165C237.243 20.4254 237.158 20.9883 236.989 21.6051C236.834 22.222 236.541 23.0624 236.11 24.1265L230.928 37.1495L230.697 36.3861C231.175 36.4478 231.753 36.363 232.432 36.1317C233.126 35.9004 233.904 35.4917 234.768 34.9057C235.632 34.3197 236.572 33.5178 237.59 32.5001L238.03 32.9396C236.811 34.5279 235.678 35.8001 234.629 36.7562C233.581 37.7123 232.617 38.4063 231.738 38.8381C230.874 39.2544 230.072 39.4626 229.332 39.4626C228.33 39.4626 227.682 39.293 227.389 38.9537C227.096 38.6145 227.127 37.9899 227.482 37.0801L232.802 23.8026C233.095 23.1087 233.303 22.5689 233.426 22.1834C233.55 21.7979 233.611 21.4663 233.611 21.1888C233.611 20.757 233.457 20.4177 233.149 20.171C232.856 19.9088 232.362 19.7777 231.668 19.7777C230.82 19.7777 229.918 20.1016 228.962 20.7493C228.021 21.3815 227.104 22.2143 226.209 23.2475C225.33 24.2807 224.544 25.3987 223.85 26.6015C223.156 27.8044 222.632 28.9686 222.277 30.0944ZM250.939 37.7509L253.553 29.6086H253.969C252.674 31.5517 251.517 33.1632 250.5 34.4431C249.482 35.7076 248.557 36.7023 247.724 37.4271C246.906 38.1518 246.159 38.6684 245.48 38.9769C244.801 39.2853 244.146 39.4395 243.514 39.4395C242.697 39.4395 241.972 39.2776 241.339 38.9537C240.723 38.6299 240.237 38.1441 239.882 37.4965C239.528 36.8334 239.35 35.9929 239.35 34.9751C239.35 33.5564 239.605 32.0374 240.114 30.4182C240.638 28.7836 241.355 27.1798 242.265 25.6069C243.175 24.0185 244.215 22.5767 245.387 21.2813C246.575 19.9705 247.832 18.9296 249.158 18.1585C250.5 17.3721 251.841 16.9788 253.183 16.9788C254.077 16.9788 254.864 17.187 255.542 17.6034C256.221 18.0197 256.814 18.6443 257.323 19.477L256.768 20.3792C256.506 19.7777 256.136 19.3305 255.658 19.0375C255.195 18.7291 254.632 18.5749 253.969 18.5749C252.921 18.5749 251.88 18.9373 250.847 19.6621C249.813 20.3869 248.826 21.3507 247.886 22.5535C246.96 23.7409 246.143 25.0363 245.434 26.4396C244.724 27.8429 244.162 29.2231 243.745 30.5801C243.329 31.9372 243.121 33.14 243.121 34.1887C243.121 35.0214 243.313 35.6228 243.699 35.9929C244.1 36.3476 244.609 36.5249 245.226 36.5249C245.704 36.5249 246.282 36.3476 246.96 35.9929C247.639 35.6382 248.364 35.1216 249.135 34.4431C249.921 33.7492 250.715 32.8856 251.517 31.8524C252.319 30.8037 253.083 29.5932 253.807 28.2207L257.092 18.4361L258.85 17.2101H261.001L254.409 37.1726L253.969 36.363C254.432 36.471 255.002 36.417 255.681 36.2011C256.36 35.9698 257.115 35.5534 257.948 34.952C258.781 34.3352 259.667 33.5178 260.608 32.5001L261.024 32.9396C259.236 35.3761 257.655 37.0724 256.282 38.0285C254.925 38.9846 253.715 39.4626 252.651 39.4626C251.941 39.4626 251.433 39.3084 251.124 39C250.816 38.6916 250.754 38.2752 250.939 37.7509ZM279.794 20.7493C279.516 19.9474 279.123 19.3614 278.614 18.9913C278.105 18.6212 277.496 18.4361 276.787 18.4361C275.646 18.4361 274.543 18.8216 273.479 19.5927C272.415 20.3483 271.42 21.343 270.495 22.5767C269.585 23.8103 268.775 25.1365 268.066 26.5553C267.357 27.974 266.809 29.3542 266.424 30.6958C266.038 32.0374 265.845 33.194 265.845 34.1655C265.845 34.9983 266.038 35.5997 266.424 35.9698C266.825 36.3399 267.334 36.5249 267.95 36.5249C268.351 36.5249 268.814 36.4093 269.338 36.178C269.878 35.9466 270.449 35.6074 271.05 35.1602C271.651 34.6975 272.268 34.1347 272.901 33.4716C273.548 32.7931 274.188 32.022 274.82 31.1584C275.468 30.2794 276.07 29.3002 276.625 28.2207L282.662 9.25292C282.384 9.0216 282.084 8.798 281.76 8.58211C281.436 8.35079 281.089 8.11948 280.719 7.88816C280.349 7.65685 279.94 7.43324 279.493 7.21735L279.586 6.87038L286.895 5.38996H287.173L277.226 37.1726L276.74 36.3861C277.188 36.4787 277.75 36.417 278.429 36.2011C279.108 35.9698 279.879 35.5534 280.742 34.952C281.621 34.3506 282.57 33.5333 283.587 32.5001L284.004 32.9396C282.169 35.2835 280.557 36.9567 279.169 37.9591C277.797 38.9614 276.563 39.4626 275.468 39.4626C274.713 39.4626 274.196 39.293 273.918 38.9537C273.656 38.6145 273.641 38.0902 273.872 37.3808L276.37 29.6086H276.787C275.445 31.6288 274.25 33.2788 273.201 34.5588C272.153 35.8387 271.204 36.8334 270.356 37.5427C269.523 38.2521 268.768 38.7456 268.089 39.0231C267.426 39.3007 266.809 39.4395 266.239 39.4395C265.421 39.4395 264.697 39.2776 264.064 38.9537C263.432 38.6299 262.939 38.1364 262.584 37.4733C262.229 36.8102 262.052 35.9621 262.052 34.9289C262.052 33.5872 262.306 32.1068 262.815 30.4876C263.34 28.8684 264.049 27.2569 264.943 25.6531C265.838 24.0494 266.879 22.5844 268.066 21.2582C269.254 19.932 270.526 18.8679 271.883 18.066C273.24 17.2487 274.628 16.84 276.046 16.84C276.972 16.84 277.789 17.0868 278.498 17.5803C279.208 18.0583 279.817 18.7754 280.326 19.7315L279.794 20.7493ZM297.915 16.7475C299.18 16.7475 300.244 17.0174 301.108 17.5571C301.987 18.0814 302.65 18.8525 303.097 19.8703C303.56 20.8726 303.791 22.0909 303.791 23.525C303.791 25.4989 303.467 27.4343 302.819 29.331C302.172 31.2124 301.285 32.9164 300.159 34.4431C299.033 35.9698 297.73 37.188 296.25 38.0979C294.77 39.0077 293.197 39.4626 291.531 39.4626C290.297 39.4626 289.241 39.2005 288.362 38.6762C287.483 38.1364 286.812 37.3577 286.35 36.3399C285.887 35.3221 285.656 34.1038 285.656 32.6851C285.656 30.7112 285.98 28.7836 286.627 26.9022C287.29 25.0055 288.185 23.2937 289.311 21.767C290.436 20.2404 291.732 19.0221 293.197 18.1123C294.677 17.2024 296.25 16.7475 297.915 16.7475ZM291.601 38.3061C292.464 38.3061 293.312 37.9822 294.145 37.3345C294.993 36.6869 295.787 35.8079 296.528 34.6975C297.268 33.5872 297.923 32.3304 298.494 30.9271C299.064 29.5084 299.512 28.0357 299.835 26.509C300.175 24.9823 300.344 23.4788 300.344 21.9984C300.344 20.6105 300.144 19.585 299.743 18.9219C299.357 18.2434 298.733 17.9041 297.869 17.9041C297.006 17.9041 296.15 18.2279 295.302 18.8756C294.453 19.5233 293.659 20.4023 292.919 21.5126C292.179 22.6229 291.523 23.8874 290.953 25.3062C290.382 26.7095 289.935 28.1745 289.611 29.7011C289.287 31.2278 289.126 32.7314 289.126 34.2118C289.126 35.5997 289.318 36.6329 289.704 37.3114C290.105 37.9745 290.737 38.3061 291.601 38.3061Z" fill="#222222"/> 
  </symbol>

  <symbol id="logo-isotype" viewBox="0 0 55 55" >
    <path d="M36.0595 26.8265C36.0595 31.8049 28.3833 33.5871 27.0483 35.5187C22.7095 31.0117 17.3695 31.8049 17.3695 26.8265C17.3695 21.8481 21.5534 17.8124 26.7145 17.8124C31.8756 17.8124 36.0595 21.8481 36.0595 26.8265Z" fill="#EFC26A"/>
    <path d="M27.2295 5.00288C34.0852 5.10837 38.6973 7.96924 41.6191 11.5634C44.4956 15.1019 45.6912 19.2906 45.916 22.123L45.9209 22.2412V37.2431C45.9208 38.0714 45.2492 38.7431 44.4209 38.7431C39.9492 38.7431 36.285 40.6191 33.4971 42.9951C30.6927 45.385 28.8547 48.2169 28.0791 49.916C27.842 50.4353 27.3304 50.7746 26.7598 50.7919C26.1892 50.8092 25.6587 50.501 25.3906 49.997C20.8881 41.5324 13.2437 38.8405 9.84766 38.7441L9.53223 38.7421C9.12913 38.7508 8.73944 38.5973 8.45117 38.3154C8.16285 38.0333 8.00007 37.6465 8 37.2431V22.2412L8.00879 22.081L8.0791 21.5214C8.49275 18.6457 9.8291 14.676 12.623 11.3378C15.6502 7.72107 20.354 4.8971 27.2295 5.00288ZM27.1836 8.00288C21.2712 7.91192 17.4085 10.2928 14.9229 13.2626C12.4142 16.26 11.2752 19.9077 11 22.333V35.83C15.2442 36.3499 21.9929 39.2527 26.6709 46.2939C27.8065 44.5322 29.442 42.5099 31.5518 40.7119C34.4259 38.2625 38.2444 36.1757 42.9209 35.8017V22.3105C42.7254 19.9776 41.705 16.4245 39.291 13.455C36.9051 10.5203 33.1152 8.09422 27.1836 8.00288Z" fill="#222222"/>
    <path d="M9.78418 20.2771C12.2433 20.7517 16.0543 21.8901 19.6074 23.7898C23.1218 25.6688 26.6437 28.4324 28.1152 32.281L28.1582 32.4109C28.1952 32.5426 28.2148 32.6789 28.2148 32.8162V49.0466H25.2148V33.1062C24.0676 30.3775 21.3835 28.1409 18.1934 26.4353C14.9468 24.6995 11.4292 23.6496 9.21582 23.2224L9.78418 20.2771Z" fill="#222222"/>
    <path d="M44.1416 20.2761C41.6181 20.7539 37.7045 21.9005 34.0557 23.8142C30.4488 25.706 26.8305 28.4893 25.3174 32.3708L25.2725 32.5037C25.2342 32.6375 25.2149 32.7761 25.2148 32.9158V49.2927H28.2148V33.2097C29.3963 30.4562 32.1607 28.1958 35.4482 26.4714C38.7932 24.7171 42.4178 23.6555 44.7002 23.2234L44.1416 20.2761Z" fill="#222222"/>
  </symbol>

  <symbol id="logo-isologo" viewBox="0 0 95 95" >
    <path d="M38.0595 24.8265C38.0595 29.8049 30.3833 31.5871 29.0483 33.5187C24.7095 29.0117 19.3695 29.8049 19.3695 24.8265C19.3695 19.8481 23.5534 15.8124 28.7145 15.8124C33.8756 15.8124 38.0595 19.8481 38.0595 24.8265Z" fill="#EFC26A"/>
    <path d="M29.2295 3.00288C36.0852 3.10837 40.6973 5.96924 43.6191 9.56342C46.4956 13.1019 47.6912 17.2906 47.916 20.123L47.9209 20.2412V35.2431C47.9208 36.0714 47.2492 36.7431 46.4209 36.7431C41.9492 36.7431 38.285 38.6191 35.4971 40.9951C32.6927 43.385 30.8547 46.2169 30.0791 47.916C29.842 48.4353 29.3304 48.7746 28.7598 48.7919C28.1892 48.8092 27.6587 48.501 27.3906 47.997C22.8881 39.5324 15.2437 36.8405 11.8477 36.7441L11.5322 36.7421C11.1291 36.7508 10.7394 36.5973 10.4512 36.3154C10.1628 36.0333 10.0001 35.6465 10 35.2431V20.2412L10.0088 20.081L10.0791 19.5214C10.4927 16.6457 11.8291 12.676 14.623 9.33784C17.6502 5.72107 22.354 2.8971 29.2295 3.00288ZM29.1836 6.00288C23.2712 5.91192 19.4085 8.29285 16.9229 11.2626C14.4142 14.26 13.2752 17.9077 13 20.333V33.83C17.2442 34.3499 23.9929 37.2527 28.6709 44.2939C29.8065 42.5322 31.442 40.5099 33.5518 38.7119C36.4259 36.2625 40.2444 34.1757 44.9209 33.8017V20.3105C44.7254 17.9776 43.705 14.4245 41.291 11.455C38.9051 8.52027 35.1152 6.09422 29.1836 6.00288Z" fill="#222222"/>
    <path d="M11.7842 18.2771C14.2433 18.7517 18.0543 19.8901 21.6074 21.7898C25.1218 23.6688 28.6437 26.4324 30.1152 30.281L30.1582 30.4109C30.1952 30.5426 30.2148 30.6789 30.2148 30.8162V47.0466H27.2148V31.1062C26.0676 28.3775 23.3835 26.1409 20.1934 24.4353C16.9468 22.6995 13.4292 21.6496 11.2158 21.2224L11.7842 18.2771Z" fill="#222222"/>
    <path d="M46.1416 18.2761C43.6181 18.7539 39.7045 19.9005 36.0557 21.8142C32.4488 23.706 28.8305 26.4893 27.3174 30.3708L27.2725 30.5037C27.2342 30.6375 27.2149 30.7761 27.2148 30.9158V47.2927H30.2148V31.2097C31.3963 28.4562 34.1607 26.1958 37.4482 24.4714C40.7932 22.7171 44.4178 21.6555 46.7002 21.2234L46.1416 18.2761Z" fill="#222222"/>
    <path d="M53.3664 64.0855C53.3664 62.6977 52.8575 61.5488 51.8397 60.639C50.8219 59.7137 49.4649 59.2511 47.7686 59.2511C46.3344 59.2511 45.1085 59.6289 44.0907 60.3845C43.0729 61.1247 42.3018 62.1965 41.7775 63.5998C41.2532 65.0031 40.9911 66.6994 40.9911 68.6887C40.9911 70.6626 41.2609 72.3126 41.8007 73.6388C42.3404 74.9496 43.1191 75.9443 44.1369 76.6228C45.1701 77.2859 46.4192 77.6175 47.8842 77.6175C49.1488 77.6175 50.3285 77.4093 51.4233 76.9929C52.5337 76.5765 53.6054 75.8903 54.6386 74.9342L54.8237 75.952C53.7751 76.8464 52.8498 77.5866 52.0479 78.1726C51.246 78.7586 50.5135 79.2212 49.8504 79.5605C49.1873 79.8843 48.555 80.1157 47.9536 80.2544C47.3676 80.3932 46.7739 80.4626 46.1725 80.4626C44.1986 80.4626 42.5023 80.0308 41.0836 79.1673C39.6803 78.3037 38.6008 77.1009 37.8452 75.5588C37.105 74.0167 36.7349 72.2278 36.7349 70.1923C36.7349 68.2338 37.0356 66.4912 37.637 64.9645C38.2384 63.4224 39.0711 62.1194 40.1352 61.0553C41.2147 59.9758 42.4638 59.1585 43.8825 58.6034C45.3166 58.0328 46.8664 57.7475 48.5319 57.7475C49.3646 57.7475 50.1897 57.8169 51.007 57.9557C51.8243 58.0791 52.6416 58.2718 53.4589 58.534C54.2917 58.7961 55.109 59.1431 55.9109 59.5749L53.3664 60.5464V50.3454C53.1813 50.1912 52.9038 50.0139 52.5337 49.8134C52.1636 49.6129 51.7549 49.4125 51.3077 49.212C50.8605 48.9961 50.4133 48.7879 49.9661 48.5875V48.1711L57.2294 46.39H57.4607L57.2062 50.0447V77.2242C57.345 77.3322 57.5455 77.4555 57.8076 77.5943C58.0852 77.7331 58.3859 77.8719 58.7098 78.0107C59.0336 78.1495 59.3497 78.2806 59.6582 78.4039C59.982 78.5273 60.2673 78.6198 60.514 78.6815V79.2829L53.8059 80.4858H53.5052L53.3664 77.1317V64.0855ZM68.5153 73.7314C68.3766 74.2711 68.2763 74.7337 68.2146 75.1193C68.1684 75.4894 68.1452 75.8209 68.1452 76.1139C68.1452 76.9929 68.3611 77.7485 68.7929 78.3808C69.2401 78.9976 69.9572 79.3061 70.9441 79.3061C71.746 79.3061 72.5788 79.0053 73.4423 78.4039C74.3213 77.8025 75.1695 76.9852 75.9868 75.952C76.8195 74.9188 77.5675 73.7468 78.2306 72.436C78.8937 71.1098 79.418 69.7219 79.8035 68.2723C80.2045 66.8073 80.4049 65.3501 80.4049 63.9005C80.4049 62.7439 80.1967 61.9035 79.7804 61.3792C79.3794 60.8394 78.7703 60.5696 77.953 60.5696C77.2745 60.5696 76.5882 60.7623 75.8943 61.1478C75.2003 61.5179 74.5218 62.0268 73.8587 62.6745C73.211 63.3068 72.6019 64.0316 72.0313 64.8489C71.4762 65.6662 70.9904 66.5143 70.574 67.3933C70.1577 68.2569 69.8338 69.1051 69.6025 69.9378L68.5153 73.7314ZM65.6239 77.7331L67.3356 78.1032L64.0972 89.3682L67.9602 90.2704L67.7289 91.0106H57.0421L57.2966 90.2704L60.6506 89.3682L68.7698 61.3329C68.8161 61.1633 68.8161 61.0322 68.7698 60.9397C68.7235 60.8471 68.631 60.8009 68.4922 60.8009C68.0604 60.8009 67.567 60.9551 67.0118 61.2635C66.4566 61.5565 65.8398 62.0962 65.1613 62.8827C64.4828 63.6538 63.7425 64.7641 62.9407 66.2136L62.4086 65.9823C63.2722 63.8851 64.1204 62.2427 64.9531 61.0553C65.8012 59.8525 66.6648 59.0043 67.5438 58.5109C68.4228 58.002 69.3327 57.7475 70.2733 57.7475C70.7668 57.7475 71.2217 57.7938 71.6381 57.8863C72.0545 57.9634 72.4785 58.0791 72.9103 58.2333L70.3196 67.1389L70.0652 66.7919C71.268 64.525 72.4246 62.7362 73.5349 61.4254C74.6452 60.0992 75.7015 59.1585 76.7039 58.6034C77.7217 58.0328 78.6778 57.7475 79.5722 57.7475C81.1606 57.7475 82.3325 58.2256 83.0882 59.1817C83.8592 60.1378 84.2447 61.4023 84.2447 62.9752C84.2447 64.7024 83.9903 66.4064 83.4814 68.0873C82.9725 69.7682 82.2709 71.3565 81.3764 72.8524C80.4974 74.3328 79.4874 75.6436 78.3462 76.7847C77.2051 77.9259 75.9868 78.828 74.6914 79.4911C73.4115 80.1388 72.1161 80.4626 70.8054 80.4626C69.5717 80.4626 68.4999 80.2236 67.5901 79.7456C66.6957 79.2521 66.0403 78.5813 65.6239 77.7331Z" fill="#222222"/>
  </symbol>
</svg>