<svg xmlns="http://www.w3.org/2000/svg">
  <symbol id="user" viewBox="0 0 24 24">
    <path d="M7.38999 17.0391C6.00145 16.0599 4.96074 14.664 4.41862 13.0537C3.87651 11.4435 3.86115 9.7024 4.37479 8.08282C4.88842 6.46324 5.90435 5.04925 7.27541 4.04571C8.64646 3.04218 10.3014 2.50122 12.0005 2.50122C13.6996 2.50122 15.3545 3.04218 16.7256 4.04571C18.0966 5.04925 19.1126 6.46324 19.6262 8.08282C20.1398 9.7024 20.1245 11.4435 19.5824 13.0537C19.0402 14.664 17.9995 16.0599 16.611 17.0391L18.694 21.7991C18.7274 21.8752 18.7413 21.9586 18.7344 22.0415C18.7275 22.1244 18.7001 22.2043 18.6545 22.274C18.6089 22.3436 18.5467 22.4007 18.4734 22.4402C18.4001 22.4797 18.3182 22.5003 18.235 22.5001H5.76499C5.6819 22.5002 5.6001 22.4796 5.52697 22.4402C5.45383 22.4007 5.39168 22.3437 5.34612 22.2742C5.30056 22.2047 5.27303 22.125 5.26603 22.0422C5.25902 21.9594 5.27275 21.8762 5.30599 21.8001L7.38999 17.0391ZM14.125 16.3461L15.457 15.4051C16.4987 14.6709 17.2796 13.624 17.6865 12.4163C18.0934 11.2085 18.1051 9.90259 17.72 8.68771C17.3349 7.47283 16.573 6.41214 15.5446 5.65933C14.5163 4.90652 13.2749 4.50071 12.0005 4.50071C10.726 4.50071 9.48469 4.90652 8.45634 5.65933C7.42799 6.41214 6.66605 7.47283 6.28096 8.68771C5.89586 9.90259 5.90761 11.2085 6.31449 12.4163C6.72138 13.624 7.50226 14.6709 8.54399 15.4051L9.87499 16.3461L8.05799 20.5001H15.942L14.125 16.3461ZM8.11899 11.4701L10.059 10.9851C10.1666 11.4184 10.4162 11.8033 10.768 12.0784C11.1198 12.3534 11.5535 12.5029 12 12.5029C12.4465 12.5029 12.8802 12.3534 13.232 12.0784C13.5837 11.8033 13.8333 11.4184 13.941 10.9851L15.881 11.4701C15.6634 12.3345 15.1635 13.1017 14.4604 13.6497C13.7574 14.1978 12.8914 14.4954 12 14.4954C11.1085 14.4954 10.2426 14.1978 9.53956 13.6497C8.83649 13.1017 8.33654 12.3345 8.11899 11.4701Z"/>
  </symbol>

  <symbol id="more-vertical" viewBox="0 0 24 24">
    <path d="M12 3.5C10.9 3.5 10 4.4 10 5.5C10 6.6 10.9 7.5 12 7.5C13.1 7.5 14 6.6 14 5.5C14 4.4 13.1 3.5 12 3.5ZM12 17.5C10.9 17.5 10 18.4 10 19.5C10 20.6 10.9 21.5 12 21.5C13.1 21.5 14 20.6 14 19.5C14 18.4 13.1 17.5 12 17.5ZM12 10.5C10.9 10.5 10 11.4 10 12.5C10 13.6 10.9 14.5 12 14.5C13.1 14.5 14 13.6 14 12.5C14 11.4 13.1 10.5 12 10.5Z" />
  </symbol>

  <symbol id="instagram" viewBox="0 0 24 24">
    <path d="M12.001 9C11.2054 9 10.4423 9.31607 9.87968 9.87868C9.31707 10.4413 9.001 11.2044 9.001 12C9.001 12.7956 9.31707 13.5587 9.87968 14.1213C10.4423 14.6839 11.2054 15 12.001 15C12.7966 15 13.5597 14.6839 14.1223 14.1213C14.6849 13.5587 15.001 12.7956 15.001 12C15.001 11.2044 14.6849 10.4413 14.1223 9.87868C13.5597 9.31607 12.7966 9 12.001 9ZM12.001 7C13.3271 7 14.5989 7.52678 15.5365 8.46447C16.4742 9.40215 17.001 10.6739 17.001 12C17.001 13.3261 16.4742 14.5979 15.5365 15.5355C14.5989 16.4732 13.3271 17 12.001 17C10.6749 17 9.40315 16.4732 8.46547 15.5355C7.52778 14.5979 7.001 13.3261 7.001 12C7.001 10.6739 7.52778 9.40215 8.46547 8.46447C9.40315 7.52678 10.6749 7 12.001 7ZM18.501 6.75C18.501 7.08152 18.3693 7.39946 18.1349 7.63388C17.9005 7.8683 17.5825 8 17.251 8C16.9195 8 16.6015 7.8683 16.3671 7.63388C16.1327 7.39946 16.001 7.08152 16.001 6.75C16.001 6.41848 16.1327 6.10054 16.3671 5.86612C16.6015 5.6317 16.9195 5.5 17.251 5.5C17.5825 5.5 17.9005 5.6317 18.1349 5.86612C18.3693 6.10054 18.501 6.41848 18.501 6.75ZM12.001 4C9.527 4 9.123 4.007 7.972 4.058C7.188 4.095 6.662 4.2 6.174 4.39C5.76583 4.54037 5.39672 4.78063 5.094 5.093C4.78127 5.39562 4.54066 5.76474 4.39 6.173C4.2 6.663 4.095 7.188 4.059 7.971C4.007 9.075 4 9.461 4 12C4 14.475 4.007 14.878 4.058 16.029C4.095 16.812 4.2 17.339 4.389 17.826C4.559 18.261 4.759 18.574 5.091 18.906C5.428 19.242 5.741 19.443 6.171 19.609C6.665 19.8 7.191 19.906 7.971 19.942C9.075 19.994 9.461 20 12 20C14.475 20 14.878 19.993 16.029 19.942C16.811 19.905 17.337 19.8 17.826 19.611C18.2342 19.4606 18.6033 19.2204 18.906 18.908C19.243 18.572 19.444 18.259 19.61 17.828C19.8 17.336 19.906 16.81 19.942 16.028C19.994 14.925 20 14.538 20 12C20 9.526 19.993 9.122 19.942 7.971C19.905 7.189 19.799 6.661 19.61 6.173C19.4596 5.76483 19.2194 5.39572 18.907 5.093C18.6044 4.78027 18.2353 4.53966 17.827 4.389C17.337 4.199 16.811 4.094 16.029 4.058C14.926 4.006 14.54 4 12 4M12 2C14.717 2 15.056 2.01 16.123 2.06C17.187 2.11 17.913 2.277 18.55 2.525C19.21 2.779 19.766 3.123 20.322 3.678C20.8307 4.17773 21.2242 4.78247 21.475 5.45C21.722 6.087 21.89 6.813 21.94 7.878C21.987 8.944 22 9.283 22 12C22 14.717 21.99 15.056 21.94 16.122C21.89 17.188 21.722 17.912 21.475 18.55C21.2242 19.2175 20.8307 19.8223 20.322 20.322C19.8223 20.8307 19.2175 21.2242 18.55 21.475C17.913 21.722 17.187 21.89 16.123 21.94C15.056 21.987 14.717 22 12 22C9.283 22 8.944 21.99 7.877 21.94C6.813 21.89 6.088 21.722 5.45 21.475C4.78247 21.2242 4.17773 20.8307 3.678 20.322C3.16931 19.8223 2.77582 19.2175 2.525 18.55C2.277 17.913 2.11 17.187 2.06 16.122C2.012 15.056 2 14.717 2 12C2 9.283 2.01 8.944 2.06 7.878C2.11 6.812 2.277 6.088 2.525 5.45C2.77582 4.78247 3.16931 4.17773 3.678 3.678C4.17773 3.16931 4.78247 2.77582 5.45 2.525C6.087 2.277 6.812 2.11 7.877 2.06C8.945 2.013 9.284 2 12.001 2" />
  </symbol>

  <symbol id="xsocial" viewBox="0 0 24 24">
    <path d="M10.488 14.651L15.25 21H22.25L14.392 10.522L20.93 3H18.28L13.163 8.886L8.75 3H1.75L9.26 13.015L2.32 21H4.97L10.488 14.651ZM16.25 19L5.75 5H7.75L18.25 19H16.25Z" />
  </symbol>

  <symbol id="facebook" viewBox="0 0 24 24">
    <path d="M12.001 2C6.47798 2 2.00098 6.477 2.00098 12C2.00098 16.991 5.65798 21.128 10.439 21.878V14.891H7.89898V12H10.439V9.797C10.439 7.291 11.931 5.907 14.216 5.907C15.31 5.907 16.454 6.102 16.454 6.102V8.562H15.194C13.951 8.562 13.564 9.333 13.564 10.124V12H16.337L15.894 14.89H13.564V21.878C18.344 21.129 22 16.992 22 12C22 6.477 17.524 2 12.001 2Z" />
  </symbol>

  <symbol id="logo-imagotype" viewBox="0 0 295 50" >
    <path d="M28.5595 22.3266C28.5595 27.305 20.8833 29.0872 19.5482 31.0188C15.2095 26.5117 9.86948 27.305 9.86948 22.3266C9.86948 17.3482 14.0534 13.3124 19.2145 13.3124C24.3756 13.3124 28.5595 17.3482 28.5595 22.3266Z" fill="#EFC26A"/>
    <path d="M19.7295 0.502938C26.5852 0.608428 31.1973 3.4693 34.1191 7.06348C36.9956 10.602 38.1912 14.7907 38.416 17.6231L38.4209 17.7412V32.7432C38.4208 33.5715 37.7492 34.2432 36.9209 34.2432C32.4492 34.2432 28.785 36.1192 25.9971 38.4951C23.1927 40.8851 21.3547 43.717 20.5791 45.416C20.342 45.9354 19.8304 46.2747 19.2598 46.292C18.6892 46.3092 18.1587 46.0011 17.8906 45.4971C13.3881 37.0324 5.74371 34.3406 2.34766 34.2441L2.03223 34.2422C1.62913 34.2509 1.23944 34.0973 0.951172 33.8154C0.66285 33.5333 0.500071 33.1466 0.5 32.7432V17.7412L0.508789 17.5811L0.579102 17.0215C0.992747 14.1458 2.3291 10.1761 5.12305 6.8379C8.15016 3.22113 12.854 0.397162 19.7295 0.502938ZM19.6836 3.50294C13.7712 3.41198 9.90848 5.79291 7.42285 8.7627C4.91421 11.76 3.77518 15.4077 3.5 17.833V31.3301C7.74416 31.85 14.4929 34.7528 19.1709 41.794C20.3065 40.0323 21.942 38.0099 24.0518 36.2119C26.9259 33.7626 30.7444 31.6758 35.4209 31.3018V17.8106C35.2254 15.4776 34.205 11.9246 31.791 8.95509C29.4051 6.02033 25.6152 3.59428 19.6836 3.50294Z" fill="#222222"/>
    <path d="M2.28418 15.7772C4.7433 16.2517 8.55434 17.3902 12.1074 19.2899C15.6218 21.1688 19.1437 23.9324 20.6152 27.7811L20.6582 27.9109C20.6952 28.0427 20.7148 28.179 20.7148 28.3162V44.5467H17.7148V28.6063C16.5676 25.8776 13.8835 23.641 10.6934 21.9354C7.44678 20.1995 3.92917 19.1496 1.71582 18.7225L2.28418 15.7772Z" fill="#222222"/>
    <path d="M36.6416 15.7762C34.118 16.254 30.2044 17.4006 26.5556 19.3143C22.9488 21.206 19.3304 23.9893 17.8174 27.8709L17.7724 28.0037C17.7342 28.1375 17.7148 28.2762 17.7148 28.4158V44.7928H20.7148V28.7098C21.8963 25.9562 24.6607 23.6958 27.9482 21.9715C31.2931 20.2171 34.9178 19.1555 37.2002 18.7234L36.6416 15.7762Z" fill="#222222"/>
    <path d="M78.0194 19.597C77.7418 18.7951 77.3486 18.2091 76.8397 17.839C76.3308 17.4689 75.7217 17.2838 75.0123 17.2838C73.8712 17.2838 72.7686 17.6694 71.7045 18.4404C70.6405 19.196 69.6458 20.1907 68.7206 21.4244C67.8107 22.658 67.0011 23.9843 66.2918 25.403C65.5824 26.8217 65.035 28.2019 64.6494 29.5435C64.2639 30.8851 64.0711 32.0417 64.0711 33.0132C64.0711 33.846 64.2639 34.4474 64.6494 34.8175C65.0504 35.1876 65.5593 35.3726 66.1761 35.3726C66.5771 35.3726 67.0397 35.257 67.564 35.0257C68.1037 34.7944 68.6743 34.4551 69.2757 34.0079C69.8771 33.5453 70.494 32.9824 71.1262 32.3193C71.7739 31.6408 72.4139 30.8697 73.0462 30.0061C73.6938 29.1271 74.2953 28.1479 74.8504 27.0684L80.8877 8.10064C80.6101 7.86932 80.3094 7.64572 79.9856 7.42982C79.6618 7.19851 79.3148 6.96719 78.9447 6.73588C78.5746 6.50457 78.1659 6.28096 77.7187 6.06507L77.8112 5.71809L85.1208 4.23768H85.3984L75.4518 36.0203L74.9661 35.2339C75.4133 35.3264 75.9761 35.2647 76.6547 35.0488C77.3332 34.8175 78.1042 34.4011 78.9678 33.7997C79.8468 33.1983 80.7952 32.381 81.813 31.3478L82.2294 31.7873C80.3943 34.1313 78.7828 35.8044 77.3949 36.8068C76.0224 37.8092 74.7887 38.3103 73.6938 38.3103C72.9382 38.3103 72.4216 38.1407 72.144 37.8015C71.8819 37.4622 71.8664 36.9379 72.0978 36.2285L74.596 28.4563H75.0123C73.6707 30.4765 72.4756 32.1265 71.427 33.4065C70.3783 34.6864 69.4299 35.6811 68.5818 36.3904C67.749 37.0998 66.9934 37.5933 66.3149 37.8708C65.6518 38.1484 65.035 38.2872 64.4644 38.2872C63.6471 38.2872 62.9223 38.1253 62.29 37.8015C61.6578 37.4776 61.1643 36.9841 60.8096 36.321C60.4549 35.6579 60.2776 34.8098 60.2776 33.7766C60.2776 32.435 60.532 30.9545 61.0409 29.3353C61.5652 27.7161 62.2746 26.1046 63.169 24.5009C64.0634 22.8971 65.1043 21.4321 66.2918 20.1059C67.4792 18.7797 68.7514 17.7156 70.1085 16.9137C71.4655 16.0964 72.8534 15.6878 74.2721 15.6878C75.1974 15.6878 76.0147 15.9345 76.7241 16.428C77.4334 16.906 78.0426 17.6231 78.5514 18.5792L78.0194 19.597ZM95.3084 16.8212C94.3214 16.8212 93.4193 17.1528 92.602 17.8159C91.7847 18.4635 91.0522 19.3271 90.4045 20.4066C89.7723 21.4706 89.2325 22.6426 88.7853 23.9226C88.3381 25.1871 87.9988 26.4439 87.7675 27.693C87.5362 28.9421 87.4206 30.0601 87.4206 31.0471C87.4206 32.6663 87.7213 33.8151 88.3227 34.4937C88.9395 35.1722 89.7877 35.5114 90.8671 35.5114C91.6382 35.5114 92.3938 35.3495 93.134 35.0257C93.8897 34.6864 94.6376 34.1235 95.3778 33.3371C96.118 32.5352 96.8505 31.4249 97.5753 30.0061L98.3386 30.0293C97.4442 32.1728 96.5421 33.8537 95.6322 35.0719C94.7378 36.2748 93.7971 37.1152 92.8102 37.5933C91.8387 38.0713 90.7823 38.3103 89.6412 38.3103C88.4229 38.3103 87.3743 38.079 86.4953 37.6164C85.6163 37.1538 84.9378 36.4675 84.4597 35.5577C83.9971 34.6479 83.7658 33.5376 83.7658 32.2268C83.7658 30.5921 83.974 28.9729 84.3903 27.3692C84.8221 25.7654 85.4158 24.2618 86.1715 22.8585C86.9425 21.4398 87.8369 20.1907 88.8547 19.1112C89.8725 18.0163 90.9905 17.1605 92.2088 16.5436C93.427 15.9114 94.6993 15.5952 96.0255 15.5952C97.1049 15.5952 97.9762 15.7803 98.6393 16.1504C99.3178 16.5051 99.8113 16.9831 100.12 17.5845C100.444 18.186 100.606 18.8491 100.606 19.5738C100.606 20.237 100.49 20.9078 100.259 21.5863C100.027 22.2648 99.6802 22.8739 99.2176 23.4137C98.5545 23.7221 97.7603 24.0691 96.8351 24.4546C95.9252 24.8247 94.9306 25.2025 93.8511 25.588C92.7871 25.9736 91.6768 26.3514 90.5202 26.7215C89.3636 27.0916 88.207 27.4386 87.0505 27.7624L87.1661 26.5827C88.8162 26.0892 90.2272 25.6035 91.3992 25.1254C92.5866 24.6474 93.5735 24.177 94.36 23.7144C95.1465 23.2363 95.7633 22.7583 96.2105 22.2802C96.6577 21.7868 96.9739 21.2856 97.1589 20.7767C97.3594 20.2678 97.4596 19.7435 97.4596 19.2037C97.4596 18.7257 97.3748 18.3093 97.2052 17.9546C97.0355 17.5845 96.7888 17.307 96.465 17.1219C96.1565 16.9214 95.771 16.8212 95.3084 16.8212ZM103.139 32.9438C103.262 33.499 103.401 33.9925 103.555 34.4243C103.725 34.856 103.972 35.3033 104.296 35.7659C104.62 36.2285 104.951 36.5446 105.29 36.7143C105.63 36.8685 105.992 36.9456 106.378 36.9456C107.179 36.9456 107.873 36.8145 108.459 36.5524C109.045 36.2902 109.5 35.897 109.824 35.3726C110.148 34.8483 110.31 34.2161 110.31 33.4759C110.31 33.0132 110.225 32.5275 110.055 32.0186C109.901 31.4943 109.624 30.916 109.223 30.2837C108.822 29.6515 108.267 28.9035 107.557 28.04C106.863 27.1918 106.316 26.4208 105.915 25.7268C105.514 25.0329 105.236 24.3929 105.082 23.8069C104.928 23.2209 104.851 22.658 104.851 22.1183C104.851 20.9155 105.152 19.8206 105.753 18.8336C106.354 17.8467 107.203 17.0602 108.297 16.4742C109.392 15.8882 110.672 15.5952 112.137 15.5952C113.217 15.5952 114.08 15.7263 114.728 15.9885C115.376 16.2352 115.838 16.5822 116.116 17.0294C116.409 17.4766 116.555 17.9855 116.555 18.5561C116.555 18.9724 116.463 19.3348 116.278 19.6432C116.093 19.9517 115.8 20.1907 115.399 20.3603C114.998 20.5299 114.474 20.6148 113.826 20.6148C113.795 20.0442 113.702 19.5661 113.548 19.1806C113.409 18.7951 113.194 18.4096 112.901 18.024C112.608 17.6231 112.284 17.3378 111.929 17.1682C111.574 16.9831 111.189 16.8906 110.773 16.8906C109.739 16.8906 108.914 17.1605 108.297 17.7002C107.696 18.2399 107.395 19.011 107.395 20.0133C107.395 20.4297 107.472 20.8692 107.627 21.3318C107.796 21.7945 108.074 22.3419 108.459 22.9742C108.845 23.6064 109.377 24.3698 110.055 25.2642C110.734 26.1432 111.274 26.9451 111.675 27.6699C112.076 28.3792 112.361 29.0346 112.53 29.636C112.7 30.222 112.785 30.8003 112.785 31.3709C112.785 32.7125 112.446 33.9077 111.767 34.9563C111.089 35.9895 110.156 36.8068 108.968 37.4082C107.781 38.0096 106.439 38.3103 104.943 38.3103C103.818 38.3103 102.908 38.1716 102.214 37.894C101.52 37.6164 101.011 37.2463 100.687 36.7837C100.363 36.3056 100.201 35.7813 100.201 35.2107C100.201 34.7173 100.309 34.3086 100.525 33.9848C100.741 33.6455 101.065 33.3911 101.497 33.2214C101.944 33.0364 102.491 32.9438 103.139 32.9438ZM136.354 27.3692C136.354 24.4083 135.745 22.18 134.527 20.6842C133.324 19.1883 131.628 18.4404 129.438 18.4404C128.559 18.4404 127.718 18.5329 126.916 18.718C126.13 18.8876 125.374 19.1575 124.65 19.5276C123.94 19.8977 123.254 20.3912 122.591 21.008L122.406 19.9902C123.347 19.1575 124.233 18.4635 125.066 17.9084C125.899 17.3378 126.677 16.8829 127.402 16.5436C128.127 16.2044 128.813 15.9653 129.461 15.8266C130.109 15.6723 130.718 15.5952 131.288 15.5952C133.262 15.5952 134.943 16.027 136.331 16.8906C137.719 17.7542 138.775 18.957 139.5 20.4991C140.225 22.0258 140.587 23.8146 140.587 25.8656C140.587 28.4563 140.071 30.6847 139.037 32.5506C138.004 34.4011 136.601 35.8276 134.827 36.8299C133.054 37.8169 131.049 38.3103 128.813 38.3103C127.996 38.3103 127.171 38.241 126.338 38.1022C125.505 37.9788 124.68 37.786 123.863 37.5239C123.046 37.2617 122.236 36.9147 121.434 36.483H123.979V47.2391L127.819 48.1181V48.8583H116.739V48.1181L120.139 47.2391V20.0596C119.938 19.89 119.684 19.7203 119.376 19.5507C119.067 19.3657 118.697 19.1652 118.265 18.9493C117.849 18.718 117.355 18.4635 116.785 18.186V17.6771L123.354 15.4564H123.632L123.979 18.7874V31.9723C123.979 32.8976 124.218 33.7303 124.696 34.4705C125.174 35.1953 125.845 35.7659 126.708 36.1823C127.572 36.5986 128.559 36.8068 129.669 36.8068C131.088 36.8068 132.291 36.4367 133.278 35.6965C134.28 34.9409 135.043 33.8614 135.568 32.4581C136.092 31.0394 136.354 29.343 136.354 27.3692ZM157.535 23.8069L157.836 25.0791C155.831 25.6343 154.196 26.174 152.932 26.6983C151.683 27.2227 150.719 27.7547 150.04 28.2944C149.362 28.8187 148.891 29.3816 148.629 29.983C148.367 30.5844 148.236 31.2398 148.236 31.9492C148.236 33.1366 148.583 34.0387 149.277 34.6556C149.986 35.2724 150.85 35.5808 151.868 35.5808C152.67 35.5808 153.387 35.4035 154.019 35.0488C154.667 34.6941 155.176 34.2007 155.546 33.5684C155.916 32.9207 156.101 32.1805 156.101 31.3478V21.8176C156.101 20.4606 155.762 19.4119 155.083 18.6717C154.405 17.9161 153.333 17.5383 151.868 17.5383C151.251 17.5383 150.596 17.6077 149.902 17.7465C149.223 17.8698 148.637 18.0549 148.144 18.3016L149.346 17.307C149.3 17.8159 149.231 18.3325 149.138 18.8568C149.046 19.3811 148.93 19.8591 148.791 20.2909C148.668 20.7073 148.514 21.0234 148.329 21.2393C148.097 21.4861 147.789 21.6788 147.403 21.8176C147.018 21.941 146.625 22.0027 146.224 22.0027C145.699 22.0027 145.283 21.8947 144.975 21.6788C144.666 21.4475 144.512 21.1314 144.512 20.7304C144.512 20.1598 144.782 19.5816 145.322 18.9956C145.877 18.4096 146.594 17.8698 147.473 17.3764C148.367 16.8675 149.339 16.4588 150.387 16.1504C151.436 15.842 152.469 15.6878 153.487 15.6878C155.029 15.6878 156.27 15.9191 157.211 16.3817C158.167 16.8443 158.861 17.5074 159.293 18.371C159.725 19.2192 159.941 20.2447 159.941 21.4475V33.6609C159.941 34.1544 160.01 34.563 160.149 34.8869C160.303 35.1953 160.519 35.4266 160.796 35.5808C161.089 35.7196 161.429 35.789 161.814 35.789C162.246 35.789 162.693 35.7119 163.156 35.5577C163.634 35.4035 164.112 35.1722 164.59 34.8638V35.6965C163.68 36.7297 162.824 37.4236 162.022 37.7783C161.236 38.1176 160.457 38.2872 159.686 38.2872C158.853 38.2872 158.175 38.1022 157.651 37.7321C157.126 37.362 156.741 36.8299 156.494 36.136C156.247 35.4266 156.109 34.5862 156.078 33.6147L156.193 33.499C155.947 34.4243 155.538 35.2493 154.967 35.9741C154.412 36.6989 153.734 37.2694 152.932 37.6858C152.13 38.1022 151.259 38.3103 150.318 38.3103C148.591 38.3103 147.149 37.84 145.992 36.8993C144.851 35.9586 144.281 34.5939 144.281 32.8051C144.281 31.849 144.45 31.0008 144.79 30.2606C145.144 29.5204 145.792 28.8187 146.733 28.1556C147.673 27.4771 149.015 26.7909 150.757 26.0969C152.5 25.403 154.759 24.6396 157.535 23.8069ZM179.563 15.6878C180.288 15.6878 180.843 15.8805 181.229 16.266C181.614 16.6362 181.807 17.145 181.807 17.7927C181.807 18.5484 181.568 19.1575 181.09 19.6201C180.612 20.0827 179.98 20.3141 179.193 20.3141C178.854 20.3141 178.515 20.2678 178.175 20.1753C177.836 20.0673 177.474 19.9594 177.088 19.8514C176.703 19.7435 176.279 19.6895 175.816 19.6895C175.415 19.6895 175.006 19.7589 174.59 19.8977C174.174 20.0211 173.765 20.2061 173.364 20.4528C172.963 20.6842 172.585 20.954 172.231 21.2624L171.976 20.3603C173.025 19.3888 173.935 18.6023 174.706 18.0009C175.492 17.3995 176.171 16.9292 176.741 16.5899C177.327 16.2506 177.844 16.0193 178.291 15.8959C178.754 15.7572 179.178 15.6878 179.563 15.6878ZM172.578 19.8514V36.2285L176.256 37.1075V37.8477H165.337V37.1075L168.738 36.2285V20.0596C168.537 19.89 168.283 19.7203 167.974 19.5507C167.681 19.3657 167.319 19.1652 166.887 18.9493C166.456 18.718 165.954 18.4635 165.384 18.186V17.6771L172.184 15.4564H172.462L172.578 19.8514ZM194.673 15.5952C196.045 15.5952 197.155 15.7494 198.003 16.0579C198.867 16.3509 199.492 16.7287 199.877 17.1913C200.278 17.6539 200.479 18.1397 200.479 18.6486C200.479 19.0958 200.378 19.489 200.178 19.8283C199.993 20.1676 199.731 20.4297 199.391 20.6148C199.068 20.7998 198.674 20.8923 198.212 20.8923C197.934 20.8923 197.641 20.769 197.333 20.5222C197.04 20.2601 196.716 19.9517 196.361 19.597C196.022 19.2269 195.652 18.8568 195.251 18.4867C194.865 18.1166 194.449 17.8081 194.002 17.5614C193.555 17.3147 193.069 17.1913 192.544 17.1913C191.558 17.1913 190.648 17.4843 189.815 18.0703C188.982 18.6409 188.311 19.5276 187.802 20.7304C187.309 21.9178 187.062 23.4368 187.062 25.2873C187.062 27.5079 187.371 29.3585 187.988 30.8389C188.604 32.3193 189.491 33.4296 190.648 34.1698C191.82 34.8946 193.238 35.257 194.904 35.257C195.952 35.257 196.963 35.0411 197.934 34.6093C198.921 34.1621 199.792 33.5067 200.548 32.6431L200.987 33.0826C200.17 34.3317 199.33 35.3418 198.466 36.1129C197.618 36.8839 196.716 37.4468 195.76 37.8015C194.819 38.1407 193.794 38.3103 192.683 38.3103C190.864 38.3103 189.229 37.8708 187.779 36.9919C186.33 36.1129 185.189 34.8638 184.356 33.2446C183.539 31.6099 183.13 29.6746 183.13 27.4386C183.13 25.7731 183.4 24.2233 183.94 22.7891C184.479 21.355 185.25 20.0982 186.253 19.0187C187.27 17.9392 188.489 17.0988 189.907 16.4974C191.326 15.8959 192.915 15.5952 194.673 15.5952ZM216.802 37.1075L220.272 36.2285V23.2286C220.272 22.2879 220.086 21.4938 219.716 20.8461C219.362 20.183 218.822 19.6818 218.097 19.3425C217.388 19.0033 216.486 18.8336 215.391 18.8336C214.173 18.8336 213.024 19.0341 211.944 19.4351C210.88 19.8206 210.063 20.2524 209.492 20.7304L208.914 20.129C209.932 19.25 210.842 18.5175 211.643 17.9315C212.461 17.3301 213.216 16.8598 213.91 16.5205C214.62 16.1812 215.306 15.9422 215.969 15.8034C216.648 15.6646 217.365 15.5952 218.12 15.5952C220.202 15.5952 221.713 16.1967 222.654 17.3995C223.61 18.6023 224.088 20.5068 224.088 23.113V36.2285L227.535 37.1075V37.8477H216.802V37.1075ZM213.332 37.8477H202.645V37.1075L206.046 36.2285V8.49387C205.845 8.32424 205.575 8.13919 205.236 7.93871C204.897 7.73824 204.488 7.52235 204.01 7.29103C203.532 7.0443 202.992 6.78985 202.391 6.52769V6.0882L209.724 4.23768H210.001L209.885 13.5597V36.2285L213.332 37.1075V37.8477ZM239.954 36.5986L242.568 28.4563H242.984C241.689 30.3994 240.533 32.0109 239.515 33.2908C238.497 34.5553 237.572 35.55 236.739 36.2748C235.922 36.9996 235.174 37.5162 234.495 37.8246C233.817 38.133 233.161 38.2872 232.529 38.2872C231.712 38.2872 230.987 38.1253 230.355 37.8015C229.738 37.4776 229.252 36.9919 228.897 36.3442C228.543 35.6811 228.365 34.8406 228.365 33.8228C228.365 32.4041 228.62 30.8851 229.129 29.2659C229.653 27.6313 230.37 26.0275 231.28 24.4546C232.19 22.8662 233.231 21.4244 234.403 20.129C235.59 18.8182 236.847 17.7773 238.173 17.0063C239.515 16.2198 240.856 15.8266 242.198 15.8266C243.092 15.8266 243.879 16.0347 244.557 16.4511C245.236 16.8675 245.83 17.492 246.339 18.3247L245.783 19.2269C245.521 18.6255 245.151 18.1783 244.673 17.8853C244.21 17.5768 243.648 17.4226 242.984 17.4226C241.936 17.4226 240.895 17.785 239.862 18.5098C238.828 19.2346 237.842 20.1984 236.901 21.4012C235.976 22.5887 235.158 23.884 234.449 25.2873C233.74 26.6906 233.177 28.0708 232.76 29.4279C232.344 30.7849 232.136 31.9877 232.136 33.0364C232.136 33.8691 232.329 34.4705 232.714 34.8406C233.115 35.1953 233.624 35.3726 234.241 35.3726C234.719 35.3726 235.297 35.1953 235.976 34.8406C236.654 34.4859 237.379 33.9693 238.15 33.2908C238.936 32.5969 239.731 31.7333 240.533 30.7001C241.334 29.6515 242.098 28.4409 242.823 27.0684L246.107 17.2838L247.865 16.0579H250.016L243.424 36.0203L242.984 35.2107C243.447 35.3187 244.018 35.2647 244.696 35.0488C245.375 34.8175 246.13 34.4011 246.963 33.7997C247.796 33.1829 248.682 32.3656 249.623 31.3478L250.04 31.7873C248.251 34.2238 246.67 35.9201 245.298 36.8762C243.941 37.8323 242.73 38.3103 241.666 38.3103C240.957 38.3103 240.448 38.1561 240.139 37.8477C239.831 37.5393 239.769 37.1229 239.954 36.5986ZM268.809 19.597C268.531 18.7951 268.138 18.2091 267.629 17.839C267.12 17.4689 266.511 17.2838 265.802 17.2838C264.661 17.2838 263.558 17.6694 262.494 18.4404C261.43 19.196 260.435 20.1907 259.51 21.4244C258.6 22.658 257.791 23.9843 257.081 25.403C256.372 26.8217 255.824 28.2019 255.439 29.5435C255.053 30.8851 254.861 32.0417 254.861 33.0132C254.861 33.846 255.053 34.4474 255.439 34.8175C255.84 35.1876 256.349 35.3726 256.966 35.3726C257.367 35.3726 257.829 35.257 258.353 35.0257C258.893 34.7944 259.464 34.4551 260.065 34.0079C260.667 33.5453 261.283 32.9824 261.916 32.3193C262.563 31.6408 263.203 30.8697 263.836 30.0061C264.483 29.1271 265.085 28.1479 265.64 27.0684L271.677 8.10064C271.4 7.86932 271.099 7.64572 270.775 7.42982C270.451 7.19851 270.104 6.96719 269.734 6.73588C269.364 6.50457 268.955 6.28096 268.508 6.06507L268.601 5.71809L275.91 4.23768H276.188L266.241 36.0203L265.756 35.2339C266.203 35.3264 266.766 35.2647 267.444 35.0488C268.123 34.8175 268.894 34.4011 269.757 33.7997C270.636 33.1983 271.585 32.381 272.602 31.3478L273.019 31.7873C271.184 34.1313 269.572 35.8044 268.184 36.8068C266.812 37.8092 265.578 38.3103 264.483 38.3103C263.728 38.3103 263.211 38.1407 262.934 37.8015C262.671 37.4622 262.656 36.9379 262.887 36.2285L265.385 28.4563H265.802C264.46 30.4765 263.265 32.1265 262.216 33.4065C261.168 34.6864 260.219 35.6811 259.371 36.3904C258.539 37.0998 257.783 37.5933 257.104 37.8708C256.441 38.1484 255.824 38.2872 255.254 38.2872C254.437 38.2872 253.712 38.1253 253.08 37.8015C252.447 37.4776 251.954 36.9841 251.599 36.321C251.244 35.6579 251.067 34.8098 251.067 33.7766C251.067 32.435 251.322 30.9545 251.83 29.3353C252.355 27.7161 253.064 26.1046 253.959 24.5009C254.853 22.8971 255.894 21.4321 257.081 20.1059C258.269 18.7797 259.541 17.7156 260.898 16.9137C262.255 16.0964 263.643 15.6878 265.062 15.6878C265.987 15.6878 266.804 15.9345 267.514 16.428C268.223 16.906 268.832 17.6231 269.341 18.5792L268.809 19.597ZM286.931 15.5952C288.195 15.5952 289.259 15.8651 290.123 16.4048C291.002 16.9291 291.665 17.7002 292.112 18.718C292.575 19.7203 292.806 20.9386 292.806 22.3728C292.806 24.3466 292.482 26.282 291.835 28.1788C291.187 30.0601 290.3 31.7641 289.174 33.2908C288.049 34.8175 286.746 36.0358 285.265 36.9456C283.785 37.8554 282.212 38.3103 280.546 38.3103C279.313 38.3103 278.256 38.0482 277.377 37.5239C276.498 36.9841 275.828 36.2054 275.365 35.1876C274.902 34.1698 274.671 32.9516 274.671 31.5328C274.671 29.5589 274.995 27.6313 275.642 25.75C276.306 23.8532 277.2 22.1414 278.326 20.6148C279.451 19.0881 280.747 17.8698 282.212 16.96C283.692 16.0502 285.265 15.5952 286.931 15.5952ZM280.616 37.1538C281.479 37.1538 282.327 36.8299 283.16 36.1823C284.008 35.5346 284.803 34.6556 285.543 33.5453C286.283 32.435 286.938 31.1781 287.509 29.7748C288.079 28.3561 288.527 26.8834 288.851 25.3567C289.19 23.83 289.359 22.3265 289.359 20.8461C289.359 19.4582 289.159 18.4327 288.758 17.7696C288.372 17.0911 287.748 16.7518 286.884 16.7518C286.021 16.7518 285.165 17.0756 284.317 17.7233C283.469 18.371 282.674 19.25 281.934 20.3603C281.194 21.4706 280.539 22.7352 279.968 24.1539C279.397 25.5572 278.95 27.0222 278.626 28.5489C278.303 30.0755 278.141 31.5791 278.141 33.0595C278.141 34.4474 278.333 35.4806 278.719 36.1591C279.12 36.8222 279.752 37.1538 280.616 37.1538Z" fill="#222222"/>
  </symbol>
</svg>